<svg width="337" height="160" viewBox="0 0 337 160" fill="none" xmlns="http://www.w3.org/2000/svg">
<rect width="337" height="160" fill="#D4E9E2"/>
<g clip-path="url(#clip0)">
<rect x="114" y="77.2803" width="67.1968" height="56.3367" transform="rotate(-29.3757 114 77.2803)" fill="#00653E"/>
<rect x="172.557" y="44.3179" width="27.1502" height="56.3367" transform="rotate(-29.3757 172.557 44.3179)" fill="white"/>
<g clip-path="url(#clip1)">
<path d="M193.301 54.1871C196.621 52.3185 197.797 48.1126 195.929 44.793C194.06 41.4735 189.854 40.2972 186.535 42.1659C183.215 44.0345 182.039 48.2404 183.907 51.5599C185.776 54.8795 189.982 56.0557 193.301 54.1871Z" fill="white"/>
<path d="M188.602 44.4242C188.544 44.4445 188.266 44.5448 187.968 44.7124C187.671 44.88 187.441 45.0654 187.393 45.1047C187.366 45.1272 187.338 45.1041 187.351 45.0739C187.363 45.0467 187.707 44.2493 187.707 44.2493L188.597 44.3725C188.63 44.3765 188.635 44.4126 188.602 44.4242ZM189.237 47.9863C189.237 47.9863 189.211 48.0156 189.219 48.0484C189.4 48.0743 189.611 48.2459 189.874 48.0978C190.137 47.9496 190.1 47.68 190.171 47.5121C190.147 47.4885 190.109 47.4952 190.109 47.4952C190.109 47.4952 189.966 47.6269 189.695 47.7796C189.424 47.9323 189.237 47.9863 189.237 47.9863V47.9863ZM189.464 47.3695C189.391 47.4107 189.359 47.3921 189.31 47.4203C189.262 47.4473 189.191 47.537 189.191 47.5829C189.202 47.5998 189.218 47.612 189.238 47.6188C189.354 47.5748 189.435 47.6071 189.559 47.5375C189.683 47.4679 189.697 47.3817 189.795 47.3055C189.799 47.2845 189.797 47.265 189.789 47.2464C189.749 47.2229 189.636 47.2373 189.588 47.2637C189.538 47.2915 189.537 47.3285 189.464 47.3695V47.3695ZM196.105 45.1278C196.179 45.2757 196.246 45.4254 196.308 45.5761C195.691 46.0717 195.106 45.6024 194.426 46.0252C194.551 46.1496 194.67 46.2812 194.782 46.4204C195.357 46.0964 195.891 46.5034 196.486 46.0643C196.545 46.2475 196.596 46.4323 196.639 46.6183C196.161 46.9526 195.7 46.5504 195.123 46.8937C195.174 46.9743 195.224 47.057 195.272 47.1419L195.349 47.2837L196.729 47.0776C196.761 47.2728 196.783 47.4683 196.798 47.664C196.446 47.8374 196.081 47.4656 195.581 47.793C195.629 47.9141 195.671 48.0363 195.71 48.1592C196.143 47.8735 196.474 48.2343 196.816 48.0859C196.819 48.2825 196.812 48.4787 196.798 48.6743C196.549 48.6795 196.208 48.4635 195.835 48.6489C195.807 48.5129 195.774 48.378 195.735 48.2438C195.413 48.4251 194.974 48.5069 194.506 48.3995C194.286 47.773 193.074 47.6905 192.839 47.273C192.584 46.8194 192.672 46.4393 192.327 45.8278C192.072 45.3741 191.575 45.0059 191.053 44.8566C190.952 44.8275 190.856 44.8117 190.754 44.8069C191.272 45.0128 191.758 45.3288 192.05 45.8477C192.374 46.4235 192.278 46.8782 192.577 47.4097C192.876 47.941 193.912 47.9632 194.221 48.5112C194.342 48.7267 194.391 48.9761 194.397 49.5175C194.942 49.6696 195.504 49.6038 195.797 49.4387C195.892 49.3852 195.927 49.3274 195.919 49.2335C195.912 49.1525 195.903 49.0715 195.892 48.9908C196.215 48.8252 196.521 49.0309 196.761 49.047C196.737 49.2298 196.706 49.411 196.669 49.5908C196.478 49.527 196.198 49.3972 195.933 49.4663C195.937 49.5697 195.938 49.6734 195.936 49.7768C196.165 49.7191 196.413 49.843 196.593 49.9156C196.545 50.0968 196.491 50.2759 196.429 50.4532C196.285 50.377 196.08 50.2927 195.9 50.2863C195.889 50.3811 195.874 50.4754 195.857 50.5688C196.014 50.5818 196.192 50.6642 196.322 50.7405C196.244 50.9341 196.158 51.1247 196.063 51.3111C195.644 50.7429 194.576 50.7936 194.402 49.959C194.398 50.1253 194.398 50.3308 194.504 50.5188C194.792 51.0314 195.568 51.1309 195.898 51.6159C195.823 51.7473 195.743 51.8762 195.659 52.003C195.324 51.4541 194.401 51.1667 194.142 50.7071C193.853 50.194 194.235 49.3005 193.894 48.6949C193.553 48.0888 192.542 48.1058 192.242 47.5737C191.943 47.042 192.1 46.5504 191.717 45.8688C191.436 45.3696 190.914 44.9979 190.366 44.8814C190.269 44.8606 190.179 44.8511 190.08 44.8544C190.659 45.0744 191.071 45.3377 191.392 45.9082C191.753 46.5491 191.575 47.1176 191.929 47.7451C192.282 48.3728 193.239 48.2934 193.569 48.8784C193.898 49.4634 193.467 50.3551 193.805 50.9562C194.113 51.5029 195.045 51.6972 195.419 52.3407C195.316 52.477 195.208 52.6096 195.094 52.7385C194.804 52.0385 193.721 51.7581 193.42 51.2234C193.091 50.6388 193.543 49.7228 193.188 49.0925C192.833 48.4618 191.921 48.5891 191.557 47.9418C191.193 47.2949 191.449 46.6788 191.047 45.964C190.733 45.4068 190.176 45.0606 189.6 44.9763L189.563 44.9714C189.51 44.9647 189.497 45.0161 189.543 45.0343C190.027 45.2293 190.382 45.503 190.681 46.0349C191.049 46.6888 190.822 47.5163 191.179 48.1498C191.6 48.8975 192.427 48.7134 192.772 49.3268C193.117 49.9401 192.635 50.8573 193.002 51.5084C193.342 52.1123 194.436 52.3787 194.706 53.1449C194.583 53.2631 194.455 53.3777 194.322 53.4875C193.968 52.5438 192.914 52.3166 192.594 51.7489C192.248 51.1342 192.725 50.1444 192.387 49.5438C192.068 48.9772 191.4 49.1093 191 48.5714C190.945 48.498 190.848 48.4751 190.769 48.539C190.666 48.6242 190.562 48.7821 190.332 48.9118C190.101 49.0415 189.912 49.0485 189.786 49.0923C189.69 49.1271 189.66 49.2215 189.694 49.3062C189.947 49.9274 189.487 50.4297 189.806 50.9965C190.144 51.5971 191.237 51.7028 191.584 52.3177C191.903 52.8855 191.55 53.9048 192.173 54.697C192.011 54.7536 191.846 54.8033 191.682 54.8472C191.166 54.2195 191.506 53.1455 191.166 52.5417C190.8 51.8906 189.766 51.8267 189.42 51.2134C189.075 50.6 189.662 49.9882 189.241 49.2406C188.884 48.6071 188.059 48.3724 187.691 47.7182C187.391 47.1865 187.341 46.7417 187.426 46.2261C187.434 46.1778 187.384 46.1614 187.361 46.2109L187.347 46.2444C187.12 46.7801 187.127 47.4359 187.441 47.993C187.843 48.7078 188.503 48.8081 188.867 49.455C189.231 50.1021 188.649 50.8157 189.004 51.4465C189.359 52.0768 190.377 52.1657 190.706 52.7503C191.007 53.2852 190.685 54.3565 191.133 54.967C190.964 54.9975 190.794 55.0212 190.624 55.0387C190.269 54.3847 190.585 53.4876 190.277 52.9411C189.939 52.3401 188.954 52.2455 188.624 51.6605C188.295 51.0755 188.859 50.2984 188.506 49.6707C188.153 49.0432 187.575 48.9 187.214 48.2591C186.893 47.6886 186.881 47.1999 186.994 46.5908C186.939 46.674 186.901 46.7553 186.868 46.849C186.684 47.3781 186.731 48.0167 187.012 48.516C187.396 49.1975 187.898 49.3178 188.197 49.8495C188.497 50.3816 187.957 51.2376 188.299 51.8436C188.64 52.4493 189.602 52.5865 189.89 53.0994C190.149 53.5591 189.916 54.4977 190.211 55.0684C190.059 55.0745 189.908 55.076 189.756 55.072C189.513 54.5379 189.83 53.8237 189.541 53.311C189.436 53.1231 189.26 53.0165 189.116 52.9333C189.739 53.515 189.141 54.4024 189.41 55.055C189.201 55.0395 188.994 55.0142 188.788 54.9801C188.79 54.8304 188.812 54.6348 188.882 54.4935C188.794 54.4602 188.705 54.4236 188.618 54.3845C188.53 54.5417 188.496 54.7605 188.487 54.923C188.303 54.8839 188.122 54.8376 187.942 54.7841C187.973 54.593 187.996 54.3162 188.164 54.1504C188.075 54.0987 187.987 54.0443 187.9 53.9872C187.704 54.1777 187.669 54.4849 187.625 54.6805C187.452 54.6194 187.281 54.5518 187.112 54.4771C187.223 54.264 187.206 53.8953 187.515 53.7056C187.578 53.7564 187.643 53.806 187.708 53.8543C187.785 53.9098 187.852 53.91 187.947 53.8566C188.24 53.6915 188.588 53.2456 188.741 52.7004C188.281 52.4148 188.093 52.243 187.972 52.0274C187.664 51.4797 188.182 50.5824 187.883 50.0509C187.584 49.5194 187.145 49.3662 186.821 48.7904C186.529 48.2716 186.511 47.6917 186.604 47.1419C186.555 47.2321 186.518 47.322 186.491 47.4236C186.348 47.9472 186.405 48.5633 186.66 49.0171C187.004 49.6285 187.375 49.7503 187.63 50.2039C187.865 50.6214 187.307 51.7002 187.728 52.214C187.578 52.6692 187.28 53.0022 186.958 53.1836C187.052 53.2864 187.151 53.3847 187.252 53.4789C186.9 53.7025 186.908 54.1055 186.774 54.3158C186.599 54.2266 186.429 54.1302 186.262 54.0263C186.566 53.8107 186.429 53.3404 186.899 53.1179C186.813 53.0216 186.731 52.9217 186.652 52.8183C186.113 53.076 186.242 53.5806 185.911 53.7915C185.751 53.6775 185.595 53.5569 185.445 53.4287L186.337 52.3554L186.256 52.2163C186.208 52.1313 186.163 52.0457 186.121 51.9598C185.528 52.2756 185.633 52.8781 185.099 53.1131C184.963 52.9796 184.831 52.8406 184.705 52.6949C185.389 52.4143 185.318 51.7465 185.893 51.4233C185.832 51.2547 185.782 51.085 185.74 50.9138C185.026 51.2759 185.124 52.019 184.38 52.2891C184.283 52.1583 184.19 52.023 184.102 51.8836C184.942 51.5269 184.873 50.7098 185.638 50.3841C185.609 50.1737 185.594 49.9628 185.593 49.7525C184.601 50.102 184.719 51.0294 183.813 51.3864C182.081 48.0956 183.273 44.0022 186.535 42.1659C189.797 40.3296 193.915 41.4338 195.83 44.6232C195.055 45.2123 194.323 44.6302 193.51 45.2967C193.689 45.407 193.862 45.529 194.027 45.6628C194.701 45.178 195.364 45.6614 196.105 45.1278ZM186.101 47.4395C185.557 47.5077 185.045 47.8509 184.752 48.4024C184.442 48.0166 183.998 47.7684 183.541 47.7254C183.477 47.7195 183.447 47.776 183.481 47.8263C184.057 48.6867 183.97 49.7639 183.71 50.8145C184.49 50.6396 184.574 49.462 185.607 49.2749C185.657 48.6385 185.825 48.0155 186.101 47.4395V47.4395ZM188.379 45.441C187.821 45.7551 187.531 46.3338 187.638 46.8103C187.646 46.8469 187.67 46.8599 187.697 46.8234C187.772 46.7218 187.874 46.6359 187.998 46.5661C188.226 46.438 188.473 46.4086 188.674 46.4873C188.824 46.6309 188.969 46.879 188.99 47.0554C188.885 47.0872 188.81 47.0336 188.719 47.0851C188.627 47.1367 188.593 47.2409 188.437 47.3283C188.282 47.4156 188.223 47.3525 188.121 47.4099C188.001 47.4775 188.048 47.6135 188.127 47.7529C188.477 48.3746 189.53 48.9084 190.137 48.5663C190.745 48.2242 190.835 47.0471 190.485 46.4255C190.407 46.286 190.311 46.1828 190.176 46.2371C190.139 46.3174 190.104 46.39 189.961 46.4705C189.806 46.5579 189.727 46.5178 189.635 46.5692C189.525 46.6313 189.667 46.8579 189.543 46.9447C189.338 46.7839 189.182 46.517 189.12 46.2364C189.157 46.0241 189.31 45.8278 189.537 45.6996C189.661 45.6298 189.789 45.5869 189.913 45.5759C189.959 45.5717 189.96 45.5442 189.933 45.5184C189.581 45.1795 188.936 45.127 188.379 45.441V45.441ZM189.769 45.8329C189.635 45.9082 189.501 46.0376 189.465 46.2029C189.471 46.2385 189.496 46.283 189.527 46.3045C189.723 46.0848 189.935 45.9611 190.104 46.0185C190.131 45.9374 190.123 45.8824 190.093 45.8302C190.048 45.7494 189.934 45.7398 189.769 45.8329V45.8329ZM187.977 47.2155C188.028 47.0325 188.278 46.8987 188.587 46.849C188.527 46.7152 188.22 46.7045 187.992 46.8328C187.826 46.9261 187.776 47.0281 187.822 47.109C187.851 47.1613 187.894 47.1967 187.977 47.2155ZM190.638 42.9466C190.215 43.226 189.918 43.5927 189.75 44.0189C189.672 43.5723 189.655 43.1524 189.689 42.7174C189.161 43.0927 188.808 43.5618 188.663 44.105L188 43.5536L188.299 42.6938L187.471 43.0857L186.737 42.5241L186.835 43.4435L186.071 43.948L186.961 44.1383L187.089 44.9912C186.549 44.8333 185.965 44.8922 185.37 45.1482C185.76 45.3455 186.11 45.5775 186.451 45.876C186 45.7979 185.532 45.862 185.074 46.0788C185.529 46.2698 185.967 46.5002 186.36 46.792C186.404 46.8248 186.455 46.8155 186.487 46.7673C186.922 46.1277 187.507 45.5763 188.226 45.1713C188.946 44.7663 189.721 44.5526 190.493 44.5124C190.551 44.5094 190.585 44.4713 190.58 44.4165C190.535 43.9292 190.565 43.4352 190.638 42.9466V42.9466ZM193.095 45.0604C193.79 44.2745 194.841 44.8131 195.395 44.2378C194.361 43.9152 193.396 43.43 192.959 42.4914C192.934 42.4363 192.869 42.433 192.842 42.4901C192.641 42.9036 192.623 43.4119 192.792 43.8774C192.169 43.8412 191.61 44.1008 191.269 44.531C191.904 44.5936 192.524 44.7731 193.095 45.0604V45.0604Z" fill="#006341"/>
<path d="M197.377 50.8398L197.071 51.0119L197.534 51.8343L197.424 51.896L196.962 51.0736L196.657 51.2452L196.599 51.1431L197.319 50.7376L197.377 50.8398V50.8398ZM197.448 50.6654L197.61 50.5739L198.333 51.1217L198.335 51.1204L198.242 50.2181L198.402 50.1281L198.923 51.0527L198.812 51.1148L198.376 50.3397L198.374 50.341L198.479 51.3026L198.412 51.3401L197.643 50.7521L197.641 50.7533L198.077 51.5285L197.968 51.5899L197.448 50.6654Z" fill="#006341"/>
</g>
</g>
<path d="M61.8718 100.991C62.478 100.235 63.697 100.697 63.6507 101.665L63.2078 110.928C63.1871 111.36 63.4474 111.757 63.8526 111.91L72.5253 115.194C73.4312 115.537 73.369 116.839 72.4344 117.094L63.488 119.535C63.07 119.649 62.773 120.019 62.7524 120.452L62.3094 129.715C62.2632 130.683 61.0057 131.026 60.4744 130.216L55.3881 122.462C55.1505 122.099 54.7066 121.931 54.2887 122.045L45.3422 124.487C44.4077 124.742 43.6928 123.652 44.299 122.896L50.1019 115.663C50.373 115.325 50.3957 114.851 50.1581 114.488L45.0718 106.734C44.5405 105.924 45.3561 104.907 46.262 105.25L54.9348 108.534C55.3399 108.687 55.7978 108.563 56.0689 108.225L61.8718 100.991Z" fill="#CBA258"/>
<path d="M120.444 60.3736C120.529 59.4086 121.799 59.1162 122.297 59.9469L127.518 68.6487C127.741 69.0202 128.178 69.2059 128.6 69.1087L138.49 66.8322C139.434 66.6149 140.104 67.7326 139.468 68.4633L132.806 76.1177C132.521 76.4445 132.48 76.9173 132.702 77.2888L137.923 85.9905C138.422 86.8212 137.566 87.8044 136.675 87.4253L127.336 83.4542C126.937 83.2847 126.475 83.3912 126.19 83.718L119.528 91.3724C118.892 92.1031 117.692 91.5931 117.777 90.6281L118.668 80.5194C118.706 80.0878 118.462 79.6809 118.064 79.5113L108.725 75.5403C107.833 75.1612 107.948 73.8628 108.892 73.6455L118.781 71.369C119.203 71.2719 119.515 70.9139 119.553 70.4823L120.444 60.3736Z" fill="#CBA258"/>
<path d="M260.266 107.915C260.235 106.947 261.461 106.504 262.055 107.269L267.385 114.125C267.65 114.467 268.106 114.599 268.514 114.452L276.681 111.502C277.592 111.173 278.392 112.202 277.849 113.004L272.975 120.191C272.732 120.55 272.747 121.024 273.013 121.366L278.342 128.222C278.937 128.987 278.205 130.066 277.275 129.797L268.933 127.382C268.517 127.262 268.071 127.423 267.828 127.782L262.954 134.969C262.41 135.771 261.158 135.408 261.127 134.44L260.845 125.761C260.831 125.328 260.54 124.953 260.124 124.833L251.782 122.418C250.852 122.149 250.809 120.846 251.72 120.517L259.888 117.567C260.295 117.42 260.562 117.027 260.548 116.594L260.266 107.915Z" fill="#CBA258"/>
<path d="M303.086 25.6737C303.784 25.0027 304.934 25.6178 304.763 26.5713L303.657 32.7404C303.581 33.1668 303.788 33.594 304.17 33.7984L309.695 36.7561C310.549 37.2132 310.319 38.4962 309.36 38.6284L303.151 39.4834C302.722 39.5425 302.38 39.8712 302.303 40.2977L301.198 46.4667C301.027 47.4203 299.736 47.5981 299.313 46.7262L296.582 41.0856C296.393 40.6957 295.974 40.4717 295.545 40.5308L289.336 41.3859C288.377 41.518 287.809 40.3449 288.507 39.674L293.028 35.3328C293.34 35.0327 293.424 34.5656 293.235 34.1757L290.503 28.535C290.081 27.6632 291.021 26.7604 291.875 27.2175L297.401 30.1752C297.783 30.3796 298.253 30.3149 298.565 30.0148L303.086 25.6737Z" fill="#CBA258"/>
<path d="M33.2238 29.7812C33.266 28.8134 34.5219 28.4649 35.0567 29.2726L38.5165 34.4984C38.7557 34.8597 39.2002 35.0258 39.6177 34.91L45.6569 33.2344C46.5903 32.9754 47.3099 34.0622 46.7069 34.8204L42.806 39.7258C42.5364 40.0648 42.5157 40.539 42.7549 40.9002L46.2147 46.126C46.7495 46.9338 45.9382 47.9539 45.0308 47.6148L39.1601 45.4206C38.7543 45.269 38.297 45.3959 38.0273 45.7349L34.1264 50.6403C33.5235 51.3985 32.3025 50.9422 32.3447 49.9744L32.6173 43.713C32.6361 43.2801 32.3741 42.8844 31.9683 42.7328L26.0976 40.5386C25.1902 40.1995 25.2469 38.8973 26.1803 38.6383L32.2195 36.9627C32.637 36.8469 32.9324 36.4754 32.9512 36.0426L33.2238 29.7812Z" fill="#CBA258"/>
<defs>
<clipPath id="clip0">
<rect x="114" y="77.2803" width="94.347" height="56.3367" rx="3" transform="rotate(-29.3757 114 77.2803)" fill="white"/>
</clipPath>
<clipPath id="clip1">
<rect width="14.2539" height="14.2539" fill="white" transform="translate(180.211 45.4619) rotate(-29.3757)"/>
</clipPath>
</defs>
</svg>
