<svg width="66" height="62" viewBox="0 0 66 62" fill="none" xmlns="http://www.w3.org/2000/svg">
  <circle cx="37.6948" cy="28.1069" r="27.3081" fill="#D4E9E2" />
  <path
    d="M22.9667 17.5239C22.767 18.2828 23.2829 18.7054 23.5658 18.8219C32.968 19.9535 52.2318 22.3166 54.069 22.716C55.9062 23.1153 55.6998 21.8839 55.367 21.2183L50.6742 17.8734L28.4084 15.6768C26.6777 15.9763 23.1664 16.7651 22.9667 17.5239Z"
    fill="black" />
  <path
    d="M26.9593 59.1309L24.4631 19.6415H23.6144C23.6144 19.6415 23.2641 18.7643 23.6144 18.7429C41.5863 17.6447 51.1388 20.5568 54.3173 22.6868L53.868 23.7851H53.169L44.0331 60.2292C37.1432 61.855 32.8997 61.4556 26.9593 59.1309Z"
    fill="white" />
  <path
    d="M22.5156 17.5947H23.6144L24.4631 16.6961C44.1532 15.9772 53.1023 19.6583 55.1156 21.5887L55.7646 22.038L56.0641 20.8398L55.1156 20.3905L54.6663 16.4965L53.169 15.498V13.3512C43.7838 9.03794 31.4855 9.19099 26.5095 9.80669L26.16 12.1032L24.1132 12.3528L23.6144 16.1969L22.7652 16.6961L22.5156 17.5947Z"
    fill="white" />
  <path
    d="M11.4531 31.0128C6.68862 33.2155 1.8325 33.7662 0 33.7662L8.24625 50.7452H26.4288L26.2597 48.2771L25.3611 33.9991C25.3611 33.9991 24.8119 33.5997 24.6122 33.4C23.8156 32.6034 24.1036 31.6497 25.1969 31.4713C26.2901 31.293 33.3657 30.459 35.4015 27.0825C36.0147 26.0655 36.621 23.1777 35.4015 23.6358C32.0696 24.8874 29.8628 26.6467 23.7398 26.9733C14.5788 27.4619 17.4087 28.2594 11.4531 31.0128Z"
    fill="#C19163" />
  <path
    d="M50.2695 35.2719L51.1359 32.004C52.3854 32.004 53.2854 33.2203 52.8689 34.5632C52.5357 35.6376 50.9636 35.4414 50.2695 35.2719Z"
    fill="#C19163" />
  <path
    d="M51.471 38.2248C51.7073 36.8074 50.0925 36.2169 50.0925 36.2169L49.2654 39.2879C49.2654 39.2879 51.2347 39.6423 51.471 38.2248Z"
    fill="#C19163" />
  <path
    d="M50.0732 42.2364C50.5064 40.8978 49.0747 40.1396 49.0747 40.1396L48.3402 43.0632C48.3402 43.0632 49.7084 43.3634 50.0732 42.2364Z"
    fill="#C19163" />
  <path
    d="M48.7325 46.993C49.1072 45.7725 47.8266 45.1819 47.8266 45.1819L47.1277 47.9277C47.1277 47.9277 48.3215 48.3317 48.7325 46.993Z"
    fill="#C19163" />
  <circle cx="37.7416" cy="36.145" r="7.98774" fill="#00653E" />
  <circle cx="37.7017" cy="36.0992" r="6.95562" fill="#008248" />
  <path d="M25.7053 6.1905L24.2076 7.58835L19.4648 1.54762L21.4618 0L25.7053 6.1905Z" fill="#008248" />
  <path d="M21.9128 9.4358L23.1109 8.08787L14.7238 2.34668L13.4258 5.24224L21.9128 9.4358Z" fill="#1E3932" />
  <path d="M60.5508 4.53418V6.01524" stroke="#00A862" stroke-linecap="round" stroke-linejoin="round" />
  <path d="M60.5508 10.458V11.9391" stroke="#00A862" stroke-linecap="round" stroke-linejoin="round" />
  <path d="M57.9336 5.61914L58.9814 6.66699" stroke="white" stroke-linecap="round" stroke-linejoin="round" />
  <path d="M62.1211 9.80762L63.1689 10.8555" stroke="#00754A" stroke-linecap="round" stroke-linejoin="round" />
  <path d="M56.8477 8.23633H58.3287" stroke="#00A862" stroke-linecap="round" stroke-linejoin="round" />
  <path d="M62.7695 8.23633H64.2506" stroke="#00A862" stroke-linecap="round" stroke-linejoin="round" />
  <path d="M57.9336 10.8555L58.9814 9.80762" stroke="white" stroke-linecap="round" stroke-linejoin="round" />
  <path d="M62.1211 6.66699L63.1689 5.61914" stroke="#008248" stroke-linecap="round" stroke-linejoin="round" />
</svg>