<svg width="72" height="64" viewBox="0 0 72 64" fill="none" xmlns="http://www.w3.org/2000/svg">
  <circle cx="33.9542" cy="36.9357" r="26.9113" fill="#D4E9E2" />
  <path
    d="M34.3605 15.7622L31.4998 26.2615C29.2649 33.6175 25.7786 48.2145 25.0635 51.4942C24.4982 54.0871 25.7512 54.997 26.6107 55.1722C30.049 56.3982 37.7508 59.0603 41.0516 59.901C44.3524 60.7416 45.8652 59.2004 46.2091 58.3247C49.1316 47.1158 55.4482 24.7578 55.8153 22.9208C56.292 20.5347 55.8153 19.386 53.9082 18.6257C49.9541 17.0494 40.6498 14.6959 38.1746 13.8539C36.7443 13.3674 34.8372 14.3328 34.3605 15.7622Z"
    fill="#007645" />
  <path
    d="M13.1305 31.8257C7.6682 34.3519 2.10088 34.9834 0 34.9834L9.45394 54.4554H25.4664C25.4664 54.4554 24.74 53.2597 25.0148 51.8817C25.8736 47.5757 29.1689 34.7235 29.1689 34.7235C29.1689 34.7235 28.6026 34.5673 28.311 34.4977C27.0547 34.198 27.6337 32.5561 28.8871 32.3516C30.1404 32.1471 38.2523 31.1907 40.5862 27.3184C41.2891 26.152 41.9843 22.8402 40.5862 23.3656C36.7663 24.801 34.2363 26.8186 27.2166 27.1931C16.714 27.7535 19.9583 28.6681 13.1305 31.8257Z"
    fill="#C19163" />
  <path
    d="M52.6485 34.7235L53.6419 30.9758C55.0743 30.9758 56.1061 32.3707 55.6286 33.9108C55.2466 35.1428 53.4443 34.9179 52.6485 34.7235Z"
    fill="#C19163" />
  <path
    d="M53.9128 38.11C54.1837 36.4845 52.3325 35.8072 52.3325 35.8072L51.3842 39.3291C51.3842 39.3291 53.6419 39.7355 53.9128 38.11Z"
    fill="#C19163" />
  <path
    d="M52.1518 42.6705C52.6485 41.1353 51.1133 40.2774 51.1133 40.2774L50.1651 43.6187C50.1651 43.6187 51.7337 43.9629 52.1518 42.6705Z"
    fill="#C19163" />
  <path
    d="M50.3457 48.8564C50.7753 47.4567 49.3072 46.7794 49.3072 46.7794L48.4493 49.895C48.4493 49.895 49.8745 50.3916 50.3457 48.8564Z"
    fill="#C19163" />
  <rect x="41.6523" y="17.0723" width="7.6387" height="2.08782" rx="1.04391" transform="rotate(16.5756 41.6523 17.0723)"
    fill="#222F2E" />
  <path
    d="M48.6877 24.5137L49.0656 27.596L52.1138 28.1891L49.2991 29.501L49.6769 32.5833L47.5595 30.3117L44.7448 31.6236L46.2508 28.9078L44.1334 26.6363L47.1816 27.2294L48.6877 24.5137Z"
    fill="#CBA258" />
  <path
    d="M57.7745 3.04851L61.7052 7.97915L67.6091 5.76453L64.1345 11.0264L68.0651 15.9571L61.987 14.2785L58.5123 19.5404L58.2305 13.2411L52.1524 11.5625L58.0563 9.34786L57.7745 3.04851Z"
    fill="#CBA258" />
  <path
    d="M58.5029 23.0043L61.4594 25.1613L64.4245 23.016L63.2867 26.4944L66.2432 28.6513L62.5835 28.6441L61.4457 32.1225L60.3216 28.6397L56.6619 28.6324L59.6269 26.4871L58.5029 23.0043Z"
    fill="#CBA258" />
  <ellipse cx="40.0979" cy="37.5676" rx="6.14083" ry="6.14082" fill="white" />
  <path
    d="M38.6487 42.8938C41.6147 43.6692 44.6477 41.8932 45.423 38.9272C46.1984 35.9612 44.4224 32.9282 41.4564 32.1529C38.4904 31.3776 35.4574 33.1535 34.6821 36.1195C33.9068 39.0855 35.6827 42.1185 38.6487 42.8938Z"
    fill="white" />
  <path
    d="M41.3872 34.6163C41.3423 34.5956 41.1253 34.4981 40.8593 34.4286C40.5933 34.359 40.3564 34.3376 40.3071 34.3339C40.2788 34.3317 40.2753 34.3025 40.3 34.2925C40.3222 34.2836 40.9673 34.0147 40.9673 34.0147L41.4132 34.5835C41.4301 34.6044 41.413 34.6282 41.3872 34.6163ZM39.7623 37.0325C39.7623 37.0325 39.7312 37.0353 39.7171 37.0584C39.8072 37.1745 39.8334 37.3919 40.0686 37.4534C40.3038 37.5149 40.433 37.3381 40.5683 37.2809C40.5675 37.2537 40.5417 37.2363 40.5417 37.2363C40.5417 37.2363 40.3853 37.2325 40.1429 37.1691C39.9006 37.1058 39.7623 37.0325 39.7623 37.0325V37.0325ZM40.2387 36.8027C40.1734 36.7856 40.1655 36.7572 40.1209 36.7457C40.0784 36.7348 39.9872 36.7471 39.9612 36.7734C39.9584 36.7895 39.9604 36.8051 39.9686 36.8206C40.0601 36.8598 40.0892 36.9241 40.1996 36.9529C40.3101 36.9818 40.3667 36.94 40.4659 36.9506C40.4802 36.941 40.49 36.9286 40.4954 36.913C40.4858 36.8774 40.412 36.8222 40.3695 36.8107C40.3249 36.7986 40.3039 36.8197 40.2387 36.8027V36.8027ZM45.3355 39.2199C45.2951 39.3465 45.2504 39.4707 45.2018 39.5925C44.5676 39.5341 44.4919 38.9357 43.862 38.8001C43.8647 38.9419 43.8598 39.0845 43.8471 39.228C44.3607 39.3619 44.4422 39.8961 45.032 39.9747C44.9636 40.1137 44.8896 40.249 44.8106 40.3808C44.3472 40.3071 44.3054 39.8165 43.7793 39.6922C43.7641 39.7678 43.7468 39.8436 43.727 39.9195L43.692 40.0444L44.6061 40.6972C44.5151 40.8277 44.4188 40.9534 44.3178 41.0749C44.017 40.9782 44.0141 40.5593 43.5416 40.469C43.5014 40.5658 43.4578 40.6603 43.411 40.7527C43.8217 40.8299 43.8115 41.2238 44.0926 41.3294C43.9839 41.4444 43.8704 41.5544 43.7529 41.6596C43.6057 41.5232 43.5296 41.2079 43.2095 41.106C43.2697 41.012 43.3261 40.9154 43.3785 40.8159C43.0906 40.7407 42.7908 40.5424 42.5804 40.2189C42.8031 39.7329 42.1481 39.0074 42.2456 38.6344C42.3515 38.2291 42.6151 38.0584 42.7579 37.5121C42.8639 37.1066 42.782 36.6154 42.5636 36.2372C42.5214 36.1638 42.4748 36.1012 42.4182 36.041C42.6028 36.45 42.7076 36.905 42.5864 37.3686C42.4519 37.883 42.1416 38.092 42.0175 38.5669C41.8934 39.0416 42.4805 39.634 42.3526 40.1236C42.3022 40.3162 42.1915 40.4882 41.8919 40.8046C42.1223 41.1976 42.484 41.4737 42.7461 41.5422C42.8311 41.5644 42.8836 41.5504 42.9314 41.4915C42.9726 41.4407 43.0128 41.3889 43.0516 41.3361C43.3311 41.4208 43.3933 41.7111 43.5228 41.8544C43.4069 41.9471 43.2878 42.0347 43.1654 42.1176C43.091 41.9742 43.0013 41.7423 42.8094 41.6342C42.7538 41.6962 42.6963 41.7567 42.6372 41.8153C42.802 41.91 42.8766 42.1207 42.9397 42.2631C42.811 42.3415 42.6793 42.4145 42.5443 42.4825C42.5036 42.3579 42.4323 42.1947 42.3318 42.0904C42.272 42.1386 42.2107 42.1849 42.1484 42.2293C42.2321 42.3248 42.2894 42.4723 42.3215 42.5887C42.1681 42.6572 42.0119 42.7195 41.8526 42.7742C41.9283 42.2113 41.2815 41.6429 41.6476 41.0626C41.5525 41.1569 41.4375 41.2758 41.3936 41.4437C41.2739 41.9018 41.6668 42.3929 41.5866 42.8583C41.4697 42.8923 41.3513 42.9222 41.2318 42.9485C41.3451 42.4436 40.9716 41.761 41.0789 41.3504C41.1988 40.8919 41.9195 40.5885 42.061 40.0474C42.2025 39.5059 41.6077 38.95 41.732 38.4745C41.8562 37.9994 42.2223 37.8031 42.3815 37.1942C42.4981 36.7481 42.4042 36.2412 42.1521 35.8673C42.1075 35.8009 42.061 35.7453 42.0018 35.6918C42.2138 36.1429 42.3049 36.5257 42.1717 37.0355C42.022 37.6081 41.6013 37.8378 41.4547 38.3984C41.3081 38.9592 41.9065 39.4488 41.7699 39.9715C41.6332 40.4941 40.8853 40.7693 40.7449 41.3063C40.6172 41.7948 41.0475 42.4282 40.9042 43.01C40.7685 43.0313 40.6315 43.0473 40.4937 43.0583C40.7176 42.4913 40.2477 41.7232 40.3726 41.2455C40.5091 40.7231 41.2829 40.4458 41.4301 39.8826C41.5774 39.3191 40.9785 38.8828 41.1297 38.3045C41.2808 37.7264 41.7739 37.5134 41.9408 36.8747C42.0709 36.3769 41.9422 35.865 41.6556 35.4937L41.6374 35.4705C41.6101 35.4366 41.5743 35.4596 41.5905 35.4956C41.7617 35.8794 41.8137 36.2358 41.6895 36.7111C41.5367 37.2954 40.9424 37.6472 40.7944 38.2132C40.6198 38.8812 41.2014 39.2373 41.0581 39.7854C40.9149 40.3333 40.1231 40.5947 39.9711 41.1765C39.83 41.716 40.3143 42.4823 40.0416 43.0763C39.9044 43.076 39.7665 43.0709 39.6281 43.06C39.9511 42.316 39.468 41.5948 39.6006 41.0875C39.7441 40.5383 40.5734 40.232 40.7137 39.6954C40.8461 39.1892 40.3859 38.8922 40.4551 38.357C40.4644 38.2839 40.4214 38.2166 40.3397 38.2093C40.2327 38.2012 40.084 38.2342 39.8782 38.1804C39.6723 38.1266 39.5589 38.0248 39.4614 37.9796C39.3867 37.9464 39.3162 37.984 39.2887 38.0521C39.0873 38.5527 38.5404 38.5863 38.408 39.0927C38.2677 39.6293 38.8413 40.3021 38.6977 40.8514C38.5651 41.3587 37.7908 41.7513 37.7082 42.5581C37.5824 42.4998 37.4595 42.4367 37.3396 42.37C37.3925 41.7185 38.19 41.2873 38.331 40.7478C38.4831 40.166 37.9203 39.5506 38.0636 39.0026C38.2069 38.4545 38.8885 38.4286 39.0631 37.7606C39.2111 37.1946 38.8647 36.5971 39.0175 36.0126C39.1417 35.5376 39.3614 35.2521 39.6988 35.0011C39.7304 34.9776 39.7105 34.9401 39.67 34.9562L39.6429 34.9675C39.2119 35.1505 38.8492 35.534 38.7191 36.0318C38.5522 36.6705 38.8779 37.0976 38.7268 37.6756C38.5756 38.2537 37.8399 38.3412 37.6925 38.9049C37.5453 39.468 38.0844 40.0885 37.9478 40.6109C37.8229 41.0888 37.0373 41.5285 36.9553 42.1326C36.8402 42.0555 36.7287 41.9743 36.6207 41.8895C36.7806 41.312 37.4655 40.97 37.5932 40.4816C37.7336 39.9446 37.2163 39.3388 37.3529 38.8161C37.4896 38.2934 38.2506 38.1592 38.3972 37.5984C38.5437 37.0377 38.2894 36.6316 38.4391 36.059C38.5724 35.5492 38.839 35.2599 39.2446 34.9703C39.1666 34.988 39.099 35.0137 39.0278 35.0498C38.625 35.2526 38.2953 35.6487 38.1787 36.0948C38.0195 36.7037 38.2427 37.0541 38.1185 37.5292C37.9942 38.0046 37.2035 38.1983 37.0619 38.7398C36.9205 39.281 37.4005 39.8985 37.2807 40.3567C37.1733 40.7675 36.5132 41.18 36.3651 41.6756C36.2737 41.5941 36.1851 41.5102 36.0998 41.4232C36.2578 40.9782 36.8407 40.7422 36.9604 40.2841C37.0043 40.1162 36.9623 39.9563 36.9254 39.8275C36.9607 40.5127 36.1185 40.6919 35.909 41.2198C35.7969 41.0941 35.6909 40.9633 35.5909 40.8286C35.6757 40.7429 35.7978 40.6421 35.9177 40.5998C35.8849 40.5308 35.8543 40.4603 35.8258 40.3889C35.6869 40.4306 35.5447 40.538 35.4484 40.6268C35.3642 40.5018 35.285 40.3734 35.2111 40.242C35.3359 40.1488 35.504 40.0015 35.694 39.9995C35.6712 39.9196 35.6506 39.8388 35.6325 39.7574C35.4122 39.7578 35.2204 39.9161 35.0855 40.0047C35.0193 39.8723 34.9582 39.7376 34.9027 39.6003C35.0857 39.5388 35.282 39.3158 35.5669 39.3788C35.5752 39.4437 35.5849 39.5086 35.5959 39.5732C35.6089 39.648 35.6479 39.6859 35.7327 39.7081C35.9948 39.7766 36.4452 39.7128 36.8386 39.4829C36.7322 39.0604 36.7198 38.8562 36.7701 38.6636C36.8981 38.1742 37.7 37.9449 37.8241 37.47C37.9483 36.9951 37.7799 36.661 37.9144 36.1465C38.0356 35.6829 38.3497 35.3374 38.7107 35.0711C38.632 35.0959 38.5607 35.1277 38.488 35.1711C38.1124 35.3942 37.8006 35.7823 37.6946 36.1878C37.5518 36.7341 37.6983 37.012 37.5924 37.4173C37.4949 37.7903 36.5684 38.1023 36.5248 38.6352C36.183 38.8143 35.8245 38.8405 35.5365 38.7652C35.5339 38.8778 35.5358 38.9896 35.5419 39.1009C35.213 39.0333 34.9923 39.2711 34.7971 39.3178C34.7459 39.1684 34.7009 39.0171 34.6625 38.8636C34.9591 38.909 35.1431 38.5605 35.5392 38.6942C35.5437 38.5908 35.5517 38.4868 35.564 38.3829C35.1078 38.2304 34.9001 38.5945 34.5906 38.5314C34.562 38.3761 34.5394 38.2193 34.524 38.0609L35.6408 37.939L35.6714 37.813C35.6913 37.7371 35.7133 37.6625 35.7368 37.5891C35.2172 37.4403 34.9407 37.8474 34.5005 37.6849C34.4963 37.5314 34.4977 37.3773 34.5063 37.2225C35.0588 37.4425 35.3914 37.0165 35.9051 37.1512C35.9643 37.0198 36.0297 36.8931 36.1013 36.7707C35.4856 36.5808 35.1267 37.0657 34.5453 36.8061C34.5623 36.6761 34.5843 36.5458 34.611 36.4157C35.2969 36.6793 35.7137 36.1677 36.3384 36.407C36.4393 36.2691 36.5487 36.1387 36.6656 36.0163C35.8961 35.6637 35.4459 36.2666 34.7223 35.9667C35.56 33.0932 38.5394 31.3913 41.4541 32.1532C44.3688 32.9152 46.1342 35.8573 45.4584 38.7739C44.6804 38.6813 44.5828 37.9354 43.7393 37.8662C43.7812 38.0301 43.8128 38.1973 43.8335 38.367C44.4951 38.4638 44.6082 39.1141 45.3355 39.2199ZM38.2536 34.9623C37.9004 34.6973 37.4121 34.6095 36.9346 34.7652C36.9706 34.3682 36.8526 33.9763 36.612 33.6956C36.5787 33.6569 36.5294 33.6725 36.5209 33.7206C36.3729 34.5405 35.7206 35.1156 34.9824 35.578C35.5312 35.9127 36.2386 35.2784 36.941 35.7479C37.326 35.4077 37.7716 35.1412 38.2536 34.9623V34.9623ZM40.6891 35.0796C40.1906 34.9493 39.6993 35.1221 39.4947 35.4577C39.479 35.4835 39.4857 35.5045 39.5217 35.4985C39.6219 35.4816 39.729 35.489 39.8398 35.5179C40.0432 35.5711 40.2028 35.6926 40.2748 35.8502C40.2813 36.0171 40.2267 36.2421 40.1403 36.3561C40.0615 36.3154 40.0483 36.2427 39.9665 36.2213C39.8847 36.1999 39.8063 36.2408 39.6676 36.2046C39.5291 36.1684 39.5299 36.0986 39.4388 36.0748C39.3316 36.0467 39.283 36.152 39.2504 36.2766C39.1052 36.8321 39.4159 37.7299 39.959 37.8718C40.502 38.0138 41.2123 37.3829 41.3575 36.8274C41.39 36.7028 41.3923 36.5894 41.2841 36.5457C41.2177 36.5713 41.1569 36.5939 41.0291 36.5605C40.8904 36.5242 40.8671 36.4567 40.7855 36.4354C40.6868 36.4096 40.6423 36.6202 40.5222 36.6012C40.4932 36.3932 40.5523 36.1517 40.6731 35.9543C40.8132 35.8521 41.0118 35.8243 41.2151 35.8774C41.3259 35.9064 41.4236 35.9528 41.5019 36.0161C41.5305 36.039 41.5465 36.0237 41.5454 35.9938C41.5314 35.601 41.1877 35.2099 40.6891 35.0796V35.0796ZM41.2745 36.084C41.1549 36.0527 41.0052 36.0528 40.8915 36.1279C40.8754 36.1522 40.865 36.1919 40.8709 36.2218C41.1071 36.2041 41.2991 36.2513 41.3644 36.3787C41.4254 36.3468 41.4516 36.3106 41.4639 36.2639C41.4827 36.1918 41.4224 36.1227 41.2745 36.084V36.084ZM39.4645 35.882C39.5964 35.8046 39.8156 35.8667 40.0224 36.0111C40.0622 35.8998 39.8909 35.7221 39.6872 35.6689C39.5391 35.6302 39.4529 35.661 39.4339 35.7333C39.4217 35.78 39.4269 35.8246 39.4645 35.882ZM43.3918 34.8999C42.9908 34.8251 42.6136 34.8709 42.2782 35.0238C42.4826 34.7215 42.7079 34.4693 42.9707 34.2364C42.4556 34.1585 41.9886 34.2323 41.601 34.4656L41.5257 33.7757L42.1796 33.4454L41.4814 33.2091L41.3704 32.4733L40.9134 33.0606L40.1889 32.925L40.5975 33.533L40.1944 34.0979C39.9703 33.7047 39.5992 33.4119 39.1123 33.2278C39.2271 33.5596 39.3001 33.8898 39.3305 34.2533C39.113 33.9556 38.8065 33.7311 38.4201 33.6003C38.5769 33.9656 38.7015 34.3439 38.7656 34.7325C38.7729 34.7762 38.8071 34.799 38.853 34.7893C39.4622 34.6623 40.1092 34.6704 40.752 34.8384C41.3948 35.0065 41.9627 35.3161 42.4322 35.725C42.4676 35.7558 42.5085 35.7527 42.5361 35.7181C42.7823 35.4107 43.0761 35.1417 43.3918 34.8999V34.8999ZM43.631 37.4971C44.473 37.4313 44.7797 38.3305 45.422 38.3074C45.0045 37.5429 44.7173 36.7221 44.9895 35.9347C45.0055 35.8886 44.9701 35.8506 44.9223 35.8683C44.5749 35.9953 44.2802 36.2793 44.1175 36.6432C43.7772 36.2737 43.3085 36.1112 42.8707 36.1697C43.2031 36.561 43.4615 37.0116 43.631 37.4971V37.4971Z"
    fill="#006341" />
</svg>