<svg width="53" height="65" viewBox="0 0 53 65" fill="none" xmlns="http://www.w3.org/2000/svg">
  <circle cx="26.2248" cy="32.5696" r="25.9319" fill="#D4E9E2" />
  <path
    d="M11.0547 59.9239V54.6143H38.1717V59.9239C36.8443 61.2829 32.2837 64.0009 24.6606 64.0009C17.0375 64.0009 12.4137 61.2829 11.0547 59.9239Z"
    fill="#FBBC05" />
  <path
    d="M12.422 60.9753C12.095 60.7686 11.8123 60.5682 11.5742 60.3808V55.8467H12.4276V60.9785C12.4276 60.9785 12.4256 60.9774 12.422 60.9753Z"
    fill="#1E3932" />
  <path d="M14.1342 61.9002C13.8303 61.7591 13.5458 61.6166 13.2809 61.4746V56.9845H14.1342V61.9002Z" fill="#1E3932" />
  <path d="M15.8409 62.5932C15.544 62.4883 15.2595 62.3803 14.9876 62.2702V58.1222H15.8409V62.5932Z" fill="#1E3932" />
  <path d="M17.6424 63.1442C17.3489 63.0675 17.0645 62.9872 16.789 62.9038V58.5015H17.6424V63.1442Z" fill="#1E3932" />
  <path d="M19.4439 63.5432C19.1524 63.4897 18.8679 63.4324 18.5905 63.3717V58.8808H19.4439V63.5432Z" fill="#1E3932" />
  <path d="M21.3402 63.8211C21.05 63.7888 20.7655 63.7527 20.4868 63.7129V59.5445H21.3402V63.8211Z" fill="#1E3932" />
  <path d="M23.4261 63.9767C23.1369 63.9653 22.8524 63.95 22.5727 63.931V59.5445H23.4261V63.9767Z" fill="#1E3932" />
  <path d="M25.6068 63.9866C25.3268 63.995 25.0424 63.9998 24.7535 64.0006V59.5445H25.6068V63.9866Z" fill="#1E3932" />
  <path d="M27.7876 63.8411C27.5084 63.8703 27.224 63.8958 26.9342 63.9174V59.5445H27.7876V63.8411Z" fill="#1E3932" />
  <path d="M29.9683 63.5235C29.6905 63.5759 29.406 63.6248 29.115 63.6697V59.5445H29.9683V63.5235Z" fill="#1E3932" />
  <path d="M32.1491 63.0084C31.8733 63.0876 31.5889 63.1635 31.2957 63.2357V59.5445L32.1491 59.2126V63.0084Z"
    fill="#1E3932" />
  <path d="M33.8557 62.4414C33.5829 62.5453 33.2985 62.6468 33.0024 62.7449V58.5015H33.8557V62.4414Z" fill="#1E3932" />
  <path d="M35.5624 61.6919C35.2955 61.8265 35.011 61.9607 34.7091 62.0928V57.8378H35.5624V61.6919Z" fill="#1E3932" />
  <path d="M37.2691 60.6751C37.0199 60.8529 36.7354 61.0384 36.4157 61.2269V56.7H37.2691V60.6751Z" fill="#1E3932" />
  <ellipse cx="24.6138" cy="54.4244" rx="13.6059" ry="5.87852" fill="#0C734A" />
  <path
    d="M17.4468 29.0513L25.2698 34.7587L33.1152 29.0823L30.1046 38.286L37.9276 43.9934L28.244 43.9743L25.2334 53.178L22.2592 43.9625L12.5756 43.9433L20.421 38.2669L17.4468 29.0513Z"
    fill="#CBA258" />
  <path
    d="M20.9921 14.7176L26.9394 17.5895L31.5086 12.8207L30.6151 19.3644L36.5625 22.2364L30.0629 23.4087L29.1693 29.9524L26.0459 24.1332L19.5463 25.3056L24.1155 20.5368L20.9921 14.7176Z"
    fill="#CBA258" />
  <path
    d="M22.4005 1.89425L24.883 5.08191L28.6817 3.70596L26.4172 7.052L28.8997 10.2397L25.0177 9.11997L22.7532 12.466L22.6184 8.42795L18.7364 7.30825L22.5352 5.9323L22.4005 1.89425Z"
    fill="#CBA258" />
  <path d="M35.1355 38.4008L34.8985 37.1682L40.2081 35.6037L40.4452 37.5948L35.1355 38.4008Z" fill="#00754A" />
  <path d="M20.06 18.1578L19.1592 18.9163L12.2852 13.6541L14.1815 11.9948L20.06 18.1578Z" fill="#00754A" />
  <path d="M28.5933 7.01702L28.0718 6.16369L32.1015 2.37109L32.9074 3.6985L28.5933 7.01702Z" fill="#00754A" />
  <path d="M33.9072 36.3147L33.4331 35.2717L38.9323 30.0569L40.0701 32.0006L35.0923 36.3147H33.9072Z" fill="#1E3932" />
  <path d="M18.2627 19.7221L13.0005 19.3902V20.6702L18.2627 21.4762V19.7221Z" fill="#1E3932" />
  <path
    d="M12.6212 16.925C12.5819 16.1003 11.8815 15.4635 11.0568 15.5028C10.2722 15.5402 9.6719 16.1405 9.63454 16.925C9.59526 17.7498 10.232 18.4502 11.0568 18.4895C11.9198 18.5306 12.6623 17.7881 12.6212 16.925Z"
    fill="#1E3932" />
  <path
    d="M40.5443 30.0569C40.5175 29.5207 40.9557 29.0744 41.4925 29.0613C42.0422 29.0479 42.5155 29.5077 42.488 30.0569C42.4618 30.5805 42.0166 30.9703 41.4925 30.9576C40.9819 30.9452 40.5699 30.567 40.5443 30.0569Z"
    fill="#1E3932" />
  <path
    d="M30.6362 7.25386C30.6574 6.75615 30.9913 6.30571 31.4895 6.30571C31.9877 6.30571 32.3147 6.75649 32.3428 7.25386C32.3712 7.75668 32.085 7.91017 31.5843 7.96497C31.0371 8.02486 30.6127 7.80381 30.6362 7.25386Z"
    fill="#1E3932" />
  <path
    d="M33.1014 2.51311C33.0252 2.16769 33.3643 1.8656 33.7177 1.8494C34.0469 1.83432 34.3673 2.04156 34.3814 2.37089C34.3959 2.71195 34.059 2.94236 33.7177 2.93978C33.4249 2.93756 33.1643 2.79898 33.1014 2.51311Z"
    fill="#1E3932" />
</svg>