<svg width="768" height="731" viewBox="0 0 768 731" fill="none" xmlns="http://www.w3.org/2000/svg">
<path fill-rule="evenodd" clip-rule="evenodd" d="M474.527 278.92L383.901 0L293.274 278.92H0L237.264 451.302L146.637 730.222L383.901 557.84L621.164 730.222L530.538 451.302L767.801 278.92H474.527ZM462.366 295.658L383.901 54.1648L305.435 295.658H51.5138L256.94 444.909L178.474 686.402L383.901 537.151L589.327 686.402L510.861 444.909L716.287 295.658H462.366Z" fill="#00653E"/>
<path fill-rule="evenodd" clip-rule="evenodd" d="M453.419 308.236L384.311 95.4336L315.202 308.236H91.5625L272.491 439.755L203.382 652.558L384.311 521.039L565.239 652.558L496.13 439.755L677.059 308.236H453.419ZM444.146 321.006L384.311 136.759L324.475 321.006H130.845L287.495 434.877L227.66 619.125L384.311 505.254L540.961 619.125L481.126 434.877L637.776 321.006H444.146Z" fill="#FBBC05"/>
<path fill-rule="evenodd" clip-rule="evenodd" d="M444.288 321.426L384.313 136.701L324.338 321.426H130.254L287.271 435.591L227.296 620.316L384.313 506.15L541.33 620.316L481.355 435.591L638.372 321.426H444.288ZM436.24 332.511L384.313 172.574L332.385 332.511H164.345L300.293 431.357L248.365 591.294L384.313 492.448L520.26 591.294L468.333 431.357L604.281 332.511H436.24Z" fill="white"/>
<path fill-rule="evenodd" clip-rule="evenodd" d="M436.068 333.211L384.313 174.102L332.558 333.211H165.074L300.571 431.546L248.816 590.655L384.313 492.32L519.81 590.655L468.055 431.546L603.551 333.211H436.068ZM429.123 342.759L384.313 205L339.502 342.759H194.493L311.808 427.899L266.998 565.658L384.313 480.518L501.628 565.658L456.818 427.899L574.133 342.759H429.123Z" fill="#00653E"/>
<path fill-rule="evenodd" clip-rule="evenodd" d="M429.369 342.98L384.312 205.053L339.254 342.98H193.445L311.407 428.224L266.35 566.152L384.312 480.908L502.274 566.152L457.216 428.224L575.178 342.98H429.369ZM423.323 351.257L384.312 231.838L345.3 351.257H219.057L321.19 425.063L282.179 544.482L384.312 470.677L486.445 544.482L447.434 425.063L549.567 351.257H423.323Z" fill="#FBBC05"/>
<path fill-rule="evenodd" clip-rule="evenodd" d="M415.671 361.723L384.313 265.666L352.956 361.723H251.48L333.576 421.089L302.218 517.146L384.313 457.779L466.408 517.146L435.051 421.089L517.146 361.723H415.671ZM411.463 367.487L384.313 284.32L357.163 367.487H269.305L340.384 418.887L313.234 502.054L384.313 450.654L455.393 502.054L428.243 418.887L499.322 367.487H411.463Z" fill="#FBBC05"/>
<path d="M384.313 284.32L411.463 367.487H499.322L428.243 418.887L455.393 502.054L384.313 450.654L313.234 502.054L340.384 418.887L269.305 367.487H357.163L384.313 284.32Z" fill="#FBBC05"/>
<path fill-rule="evenodd" clip-rule="evenodd" d="M384.312 259.218L417.192 360.2H523.593L437.513 422.611L470.393 523.594L384.312 461.183L298.232 523.594L331.112 422.611L245.031 360.2H351.432L384.312 259.218ZM409.644 371.516L384.312 294.187L358.981 371.516H277.006L343.325 419.308L317.993 496.637L384.312 448.845L450.631 496.637L425.3 419.308L491.618 371.516H409.644Z" fill="#00653E"/>
</svg>
