<svg width="337" height="160" viewBox="0 0 337 160" fill="none" xmlns="http://www.w3.org/2000/svg">
<rect width="337" height="160" fill="#D4E9E2"/>
<g clip-path="url(#clip0)">
<rect x="114" y="77.2804" width="67.1968" height="56.3367" transform="rotate(-29.3757 114 77.2804)" fill="#CBA258"/>
<rect x="172.557" y="44.3181" width="27.1502" height="56.3367" transform="rotate(-29.3757 172.557 44.3181)" fill="white"/>
<g clip-path="url(#clip1)">
<path d="M193.301 54.1872C196.621 52.3186 197.797 48.1127 195.928 44.7931C194.06 41.4735 189.854 40.2973 186.534 42.166C183.214 44.0346 182.038 48.2405 183.907 51.56C185.776 54.8796 189.981 56.0558 193.301 54.1872Z" fill="white"/>
<path d="M188.602 44.4241C188.544 44.4443 188.266 44.5447 187.968 44.7122C187.67 44.8798 187.44 45.0653 187.393 45.1046C187.366 45.127 187.337 45.1039 187.351 45.0737C187.363 45.0465 187.707 44.2492 187.707 44.2492L188.597 44.3724C188.63 44.3764 188.635 44.4125 188.602 44.4241ZM189.237 47.9861C189.237 47.9861 189.211 48.0155 189.219 48.0482C189.399 48.0742 189.611 48.2458 189.874 48.0976C190.137 47.9494 190.1 47.6799 190.171 47.512C190.147 47.4884 190.109 47.4951 190.109 47.4951C190.109 47.4951 189.966 47.6268 189.695 47.7795C189.423 47.9322 189.237 47.9861 189.237 47.9861ZM189.464 47.3694C189.391 47.4105 189.359 47.3919 189.309 47.4202C189.262 47.4471 189.191 47.5368 189.191 47.5828C189.202 47.5996 189.217 47.6118 189.238 47.6187C189.354 47.5747 189.435 47.6069 189.559 47.5373C189.682 47.4678 189.697 47.3815 189.795 47.3054C189.799 47.2843 189.797 47.2649 189.788 47.2463C189.749 47.2228 189.636 47.2371 189.588 47.2635C189.537 47.2913 189.537 47.3283 189.464 47.3694ZM196.105 45.1276C196.178 45.2756 196.246 45.4252 196.307 45.576C195.69 46.0716 195.106 45.6022 194.426 46.025C194.551 46.1494 194.67 46.281 194.782 46.4202C195.357 46.0963 195.891 46.5032 196.486 46.0641C196.545 46.2473 196.595 46.4322 196.639 46.6181C196.161 46.9525 195.7 46.5503 195.122 46.8935C195.174 46.9741 195.224 47.0568 195.272 47.1418L195.349 47.2836L196.729 47.0774C196.761 47.2726 196.783 47.4681 196.798 47.6638C196.445 47.8372 196.081 47.4654 195.581 47.7928C195.629 47.914 195.671 48.0361 195.709 48.159C196.143 47.8733 196.474 48.2341 196.816 48.0858C196.818 48.2824 196.812 48.4786 196.798 48.6741C196.549 48.6794 196.208 48.4633 195.834 48.6488C195.807 48.5128 195.774 48.3778 195.735 48.2436C195.413 48.425 194.973 48.5068 194.506 48.3994C194.285 47.7728 193.074 47.6904 192.839 47.2729C192.583 46.8193 192.671 46.4391 192.327 45.8277C192.072 45.3739 191.574 45.0057 191.053 44.8564C190.952 44.8273 190.856 44.8116 190.753 44.8067C191.271 45.0127 191.758 45.3287 192.05 45.8476C192.374 46.4234 192.277 46.878 192.577 47.4096C192.876 47.9409 193.912 47.9631 194.22 48.511C194.342 48.7266 194.391 48.9759 194.397 49.5173C194.942 49.6695 195.504 49.6037 195.797 49.4386C195.892 49.385 195.927 49.3272 195.919 49.2333C195.912 49.1523 195.903 49.0714 195.892 48.9907C196.215 48.825 196.521 49.0307 196.76 49.0469C196.737 49.2297 196.706 49.4108 196.668 49.5907C196.478 49.5268 196.198 49.3971 195.933 49.4662C195.937 49.5696 195.938 49.6733 195.935 49.7766C196.164 49.719 196.413 49.8428 196.592 49.9155C196.545 50.0967 196.491 50.2757 196.429 50.453C196.285 50.3768 196.08 50.2926 195.9 50.2862C195.888 50.3809 195.874 50.4752 195.856 50.5686C196.014 50.5817 196.192 50.664 196.321 50.7403C196.243 50.934 196.158 51.1245 196.063 51.311C195.644 50.7427 194.575 50.7934 194.401 49.9588C194.398 50.1251 194.398 50.3307 194.504 50.5186C194.792 51.0313 195.567 51.1308 195.898 51.6157C195.822 51.7472 195.743 51.8761 195.658 52.0028C195.324 51.4539 194.4 51.1665 194.142 50.7069C193.853 50.1939 194.235 49.3003 193.894 48.6947C193.553 48.0887 192.541 48.1056 192.242 47.5735C191.942 47.0418 192.1 46.5503 191.716 45.8687C191.435 45.3694 190.914 44.9977 190.366 44.8812C190.268 44.8605 190.179 44.851 190.08 44.8543C190.659 45.0743 191.071 45.3375 191.392 45.9081C191.753 46.549 191.575 47.1175 191.928 47.7449C192.282 48.3726 193.239 48.2933 193.568 48.8783C193.898 49.4633 193.467 50.355 193.805 50.956C194.113 51.5027 195.044 51.6971 195.419 52.3406C195.316 52.4769 195.207 52.6094 195.094 52.7383C194.804 52.0384 193.721 51.7579 193.42 51.2232C193.091 50.6386 193.543 49.7226 193.188 49.0923C192.833 48.4617 191.921 48.589 191.557 47.9417C191.193 47.2948 191.449 46.6787 191.047 45.9638C190.733 45.4067 190.176 45.0605 189.599 44.9762L189.563 44.9713C189.509 44.9645 189.497 45.016 189.543 45.0341C190.027 45.2292 190.382 45.5028 190.681 46.0347C191.049 46.6886 190.822 47.5162 191.178 48.1497C191.599 48.8973 192.426 48.7132 192.772 49.3267C193.117 49.9399 192.635 50.8572 193.002 51.5083C193.342 52.1121 194.436 52.3785 194.705 53.1448C194.583 53.263 194.455 53.3775 194.322 53.4873C193.968 52.5437 192.913 52.3165 192.594 51.7487C192.248 51.1341 192.724 50.1443 192.386 49.5437C192.067 48.9771 191.4 49.1091 190.999 48.5712C190.945 48.4979 190.848 48.4749 190.769 48.5388C190.666 48.624 190.562 48.7819 190.331 48.9116C190.101 49.0413 189.912 49.0483 189.786 49.0922C189.69 49.1269 189.66 49.2214 189.694 49.3061C189.946 49.9273 189.487 50.4295 189.806 50.9963C190.144 51.5969 191.237 51.7027 191.583 52.3175C191.903 52.8853 191.55 53.9046 192.173 54.6968C192.01 54.7534 191.846 54.8032 191.681 54.8471C191.166 54.2193 191.506 53.1454 191.166 52.5415C190.8 51.8904 189.765 51.8265 189.42 51.2133C189.075 50.5998 189.662 49.9881 189.241 49.2404C188.884 48.6069 188.059 48.3722 187.69 47.7181C187.391 47.1864 187.341 46.7416 187.426 46.2259C187.434 46.1777 187.383 46.1613 187.361 46.2108L187.347 46.2442C187.12 46.7799 187.127 47.4357 187.44 47.9929C187.843 48.7077 188.503 48.808 188.867 49.4549C189.231 50.102 188.649 50.8155 189.004 51.4464C189.359 52.0766 190.377 52.1656 190.706 52.7501C191.007 53.2851 190.685 54.3563 191.133 54.9669C190.964 54.9973 190.794 55.0211 190.624 55.0386C190.268 54.3846 190.585 53.4875 190.277 52.9409C189.939 52.3399 188.954 52.2453 188.624 51.6603C188.295 51.0753 188.859 50.2982 188.506 49.6706C188.152 49.0431 187.574 48.8999 187.214 48.259C186.893 47.6884 186.881 47.1997 186.993 46.5907C186.939 46.6738 186.901 46.7552 186.868 46.8489C186.683 47.3779 186.731 48.0166 187.012 48.5158C187.396 49.1974 187.898 49.3177 188.197 49.8494C188.496 50.3815 187.957 51.2374 188.298 51.8435C188.639 52.4491 189.601 52.5863 189.89 53.0992C190.149 53.559 189.915 54.4975 190.211 55.0682C190.059 55.0743 189.907 55.0758 189.756 55.0718C189.513 54.5378 189.83 53.8236 189.541 53.3109C189.435 53.123 189.26 53.0163 189.116 52.9331C189.739 53.5149 189.141 54.4022 189.41 55.0548C189.201 55.0394 188.993 55.014 188.788 54.98C188.79 54.8302 188.812 54.6347 188.882 54.4934C188.793 54.4601 188.705 54.4234 188.618 54.3844C188.53 54.5416 188.496 54.7603 188.486 54.9228C188.303 54.8837 188.121 54.8375 187.942 54.7839C187.973 54.5929 187.996 54.3161 188.164 54.1502C188.075 54.0985 187.986 54.0442 187.9 53.9871C187.703 54.1776 187.669 54.4847 187.625 54.6804C187.451 54.6192 187.28 54.5516 187.112 54.4769C187.223 54.2639 187.205 53.8952 187.514 53.7054C187.578 53.7562 187.643 53.8059 187.708 53.8541C187.784 53.9097 187.852 53.9099 187.947 53.8564C188.24 53.6913 188.588 53.2454 188.741 52.7002C188.281 52.4146 188.093 52.2429 187.972 52.0273C187.663 51.4796 188.182 50.5822 187.883 50.0507C187.584 49.5192 187.145 49.3661 186.821 48.7903C186.528 48.2714 186.511 47.6915 186.603 47.1418C186.554 47.2319 186.518 47.3219 186.491 47.4234C186.348 47.9471 186.404 48.5632 186.66 49.0169C187.004 49.6284 187.375 49.7502 187.63 50.2037C187.865 50.6212 187.307 51.7001 187.728 52.2138C187.577 52.669 187.28 53.002 186.957 53.1835C187.052 53.2863 187.15 53.3845 187.252 53.4788C186.9 53.7023 186.908 54.1054 186.774 54.3157C186.599 54.2264 186.428 54.13 186.261 54.0261C186.566 53.8106 186.429 53.3403 186.898 53.1177C186.813 53.0214 186.73 52.9215 186.652 52.8181C186.112 53.0758 186.241 53.5805 185.91 53.7914C185.751 53.6773 185.595 53.5567 185.445 53.4285L186.337 52.3552L186.256 52.2161C186.208 52.1312 186.163 52.0456 186.121 51.9596C185.528 52.2754 185.632 52.8779 185.099 53.1129C184.962 52.9794 184.831 52.8404 184.705 52.6948C185.388 52.4142 185.318 51.7464 185.893 51.4231C185.832 51.2546 185.781 51.0849 185.74 50.9137C185.026 51.2758 185.124 52.0189 184.38 52.289C184.283 52.1582 184.19 52.0228 184.102 51.8835C184.942 51.5267 184.873 50.7097 185.637 50.3839C185.608 50.1736 185.594 49.9627 185.592 49.7523C184.6 50.1018 184.719 51.0293 183.813 51.3862C182.08 48.0954 183.272 44.002 186.535 42.1657C189.797 40.3294 193.915 41.4336 195.83 44.6231C195.055 45.2121 194.323 44.63 193.51 45.2965C193.689 45.4068 193.862 45.5289 194.026 45.6626C194.701 45.1778 195.364 45.6612 196.105 45.1276ZM186.101 47.4393C185.557 47.5076 185.044 47.8508 184.752 48.4023C184.442 48.0165 183.998 47.7682 183.54 47.7252C183.477 47.7194 183.447 47.7758 183.481 47.8262C184.056 48.6866 183.97 49.7637 183.71 50.8143C184.489 50.6395 184.574 49.4618 185.607 49.2747C185.657 48.6384 185.825 48.0154 186.101 47.4393ZM188.378 45.4409C187.82 45.755 187.531 46.3336 187.638 46.8102C187.646 46.8468 187.67 46.8598 187.697 46.8232C187.772 46.7217 187.874 46.6357 187.998 46.5659C188.226 46.4378 188.473 46.4085 188.674 46.4872C188.824 46.6307 188.969 46.8789 188.99 47.0553C188.885 47.087 188.81 47.0334 188.719 47.085C188.627 47.1365 188.592 47.2408 188.437 47.3282C188.282 47.4154 188.222 47.3524 188.121 47.4098C188.001 47.4773 188.048 47.6134 188.127 47.7528C188.476 48.3744 189.529 48.9083 190.137 48.5661C190.745 48.2241 190.835 47.047 190.485 46.4253C190.406 46.2859 190.31 46.1826 190.176 46.237C190.139 46.3172 190.104 46.3899 189.961 46.4704C189.806 46.5578 189.727 46.5176 189.635 46.569C189.525 46.6312 189.667 46.8578 189.543 46.9446C189.338 46.7838 189.182 46.5169 189.119 46.2362C189.156 46.0239 189.31 45.8276 189.537 45.6995C189.661 45.6297 189.788 45.5868 189.913 45.5757C189.959 45.5715 189.96 45.544 189.933 45.5183C189.581 45.1794 188.936 45.1268 188.378 45.4409ZM189.769 45.8328C189.635 45.9081 189.501 46.0375 189.464 46.2027C189.471 46.2383 189.496 46.2828 189.527 46.3043C189.723 46.0846 189.935 45.961 190.103 46.0184C190.13 45.9373 190.123 45.8823 190.093 45.83C190.048 45.7493 189.934 45.7396 189.769 45.8328ZM187.977 47.2154C188.028 47.0323 188.278 46.8985 188.587 46.8488C188.526 46.7151 188.22 46.7043 187.992 46.8326C187.826 46.9259 187.776 47.0279 187.821 47.1089C187.851 47.1612 187.894 47.1965 187.977 47.2154ZM190.638 42.9464C190.215 43.2259 189.917 43.5925 189.75 44.0188C189.671 43.5722 189.655 43.1523 189.689 42.7172C189.161 43.0925 188.808 43.5617 188.663 44.1049L188 43.5535L188.299 42.6937L187.471 43.0855L186.736 42.5239L186.835 43.4434L186.071 43.9478L186.961 44.1382L187.088 44.9911C186.549 44.8332 185.964 44.892 185.37 45.1481C185.759 45.3454 186.11 45.5774 186.451 45.8758C185.999 45.7977 185.532 45.8619 185.074 46.0786C185.529 46.2696 185.967 46.5 186.36 46.7918C186.404 46.8246 186.454 46.8154 186.487 46.7671C186.922 46.1276 187.507 45.5761 188.226 45.1711C188.946 44.7662 189.72 44.5524 190.493 44.5122C190.551 44.5093 190.585 44.4711 190.58 44.4163C190.534 43.9291 190.565 43.435 190.638 42.9464ZM193.094 45.0603C193.79 44.2744 194.84 44.813 195.394 44.2376C194.361 43.9151 193.396 43.4299 192.959 42.4912C192.933 42.4362 192.869 42.4328 192.842 42.49C192.641 42.9034 192.623 43.4117 192.792 43.8773C192.168 43.841 191.609 44.1006 191.269 44.5308C191.904 44.5935 192.524 44.7729 193.094 45.0603Z" fill="#006341"/>
<path d="M197.377 50.8399L197.071 51.012L197.534 51.8344L197.424 51.896L196.961 51.0736L196.656 51.2453L196.599 51.1431L197.319 50.7377L197.377 50.8399ZM197.448 50.6654L197.61 50.5739L198.333 51.1217L198.335 51.1205L198.242 50.2181L198.402 50.1281L198.922 51.0527L198.812 51.1149L198.376 50.3397L198.373 50.3411L198.478 51.3026L198.412 51.3402L197.643 50.7522L197.641 50.7534L198.077 51.5285L197.968 51.59L197.448 50.6654Z" fill="#006341"/>
</g>
</g>
<path d="M26.5189 72.9882C26.3196 72.0402 27.4498 71.391 28.1683 72.0408L33.9758 77.293C34.2971 77.5835 34.769 77.6342 35.1447 77.4184L41.9344 73.5181C42.7744 73.0356 43.7411 73.9099 43.3452 74.794L40.1447 81.9403C39.9676 82.3357 40.0653 82.8001 40.3866 83.0907L46.1941 88.3429C46.9126 88.9927 46.3798 90.1822 45.4167 90.0789L37.6311 89.2433C37.2003 89.1971 36.7888 89.4335 36.6117 89.8289L33.4112 96.9752C33.0153 97.8593 31.7193 97.7202 31.52 96.7723L29.9087 89.1095C29.8196 88.6856 29.4676 88.3673 29.0368 88.321L21.2513 87.4855C20.2881 87.3821 20.0199 86.1066 20.8599 85.6241L27.6496 81.7238C28.0253 81.508 28.2193 81.0749 28.1301 80.6509L26.5189 72.9882Z" fill="#CBA258"/>
<path d="M272.847 111.546C272.816 110.578 274.042 110.135 274.636 110.9L281.139 119.266C281.405 119.608 281.861 119.74 282.268 119.593L292.234 115.993C293.145 115.664 293.945 116.693 293.401 117.495L287.454 126.265C287.211 126.623 287.226 127.098 287.492 127.44L293.995 135.805C294.589 136.57 293.858 137.649 292.927 137.379L282.749 134.434C282.333 134.313 281.887 134.474 281.644 134.833L275.697 143.602C275.153 144.404 273.901 144.042 273.87 143.074L273.526 132.484C273.512 132.051 273.221 131.676 272.805 131.555L262.627 128.61C261.696 128.34 261.654 127.038 262.565 126.709L272.531 123.109C272.938 122.962 273.205 122.569 273.191 122.136L272.847 111.546Z" fill="#CBA258"/>
<path d="M325.086 68.6737C325.784 68.0027 326.933 68.6178 326.763 69.5713L325.657 75.7404C325.581 76.1668 325.788 76.594 326.169 76.7984L331.695 79.7561C332.549 80.2132 332.319 81.4962 331.36 81.6284L325.151 82.4834C324.722 82.5425 324.379 82.8712 324.303 83.2977L323.198 89.4667C323.027 90.4203 321.735 90.5981 321.313 89.7262L318.581 84.0856C318.393 83.6957 317.974 83.4717 317.545 83.5308L311.336 84.3859C310.377 84.518 309.808 83.3449 310.507 82.674L315.028 78.3328C315.34 78.0327 315.424 77.5656 315.235 77.1757L312.503 71.535C312.081 70.6632 313.021 69.7604 313.875 70.2175L319.401 73.1752C319.783 73.3796 320.253 73.3149 320.565 73.0148L325.086 68.6737Z" fill="#CBA258"/>
<path d="M57.3667 17.4415C57.9131 16.6416 59.1639 17.0083 59.1919 17.9767L59.3734 24.2414C59.3859 24.6744 59.6759 25.0501 60.0916 25.172L66.1057 26.9354C67.0353 27.208 67.073 28.5108 66.1608 28.8367L60.2588 30.9451C59.8508 31.0909 59.5831 31.4828 59.5956 31.9158L59.777 38.1805C59.805 39.1488 58.5776 39.5873 57.9858 38.8204L54.1567 33.8588C53.892 33.5158 53.4366 33.3823 53.0286 33.528L47.1266 35.6365C46.2143 35.9624 45.418 34.9305 45.9645 34.1306L49.5 28.9558C49.7444 28.598 49.7307 28.1236 49.466 27.7807L45.6369 22.8191C45.0451 22.0522 45.7803 20.9759 46.7099 21.2485L52.7241 23.0119C53.1398 23.1338 53.5867 22.9741 53.8311 22.6164L57.3667 17.4415Z" fill="#CBA258"/>
<defs>
<clipPath id="clip0">
<rect x="114" y="77.2804" width="94.347" height="56.3367" rx="3" transform="rotate(-29.3757 114 77.2804)" fill="white"/>
</clipPath>
<clipPath id="clip1">
<rect width="14.2539" height="14.2539" fill="white" transform="translate(180.211 45.4619) rotate(-29.3757)"/>
</clipPath>
</defs>
</svg>
